<svg width="219" height="219" viewBox="0 0 219 219" fill="none" xmlns="http://www.w3.org/2000/svg">
<rect x="0.198242" width="218.736" height="218.736" rx="50" fill="url(#paint0_linear_24_51)"/>
<path fill-rule="evenodd" clip-rule="evenodd" d="M183.473 33.9446C183.212 31.2652 180.823 29.303 178.137 29.562C178.137 29.562 151.75 30.6089 133.804 59.4276C126.594 56.6844 118.456 55.1339 109.567 55.1338C100.678 55.1338 92.539 56.6844 85.3293 59.4276C67.3836 30.6089 40.9962 29.562 40.9962 29.562C38.3097 29.3032 35.9211 31.2653 35.6602 33.9446C35.4005 36.6239 37.3604 39.0871 40.0532 39.2672C50.3822 39.957 66.8058 47.9059 76.5728 63.5897C59.1363 73.859 50.3014 90.5731 50.3014 106.931C50.3014 145.932 97.9582 189.197 109.567 189.197C123.53 172.619 118.008 155.306 112.876 139.213C108.28 124.803 103.996 111.372 114.289 100.322C131.042 82.3375 139.134 69.1632 142.018 64.4684C142.225 64.1313 142.405 63.838 142.56 63.5897C152.327 47.9058 168.751 39.957 179.08 39.2672C181.773 39.0873 183.732 36.624 183.473 33.9446ZM90.064 137.778C89.9924 137.767 51.2397 131.595 65.354 89.5318C65.4449 89.5688 82.7951 96.6325 88.4979 111.399C94.2158 126.204 90.064 137.778 90.064 137.778Z" fill="url(#paint1_linear_24_51)"/>
<path fill-rule="evenodd" clip-rule="evenodd" d="M168.831 106.931C168.831 90.5731 159.997 73.859 142.56 63.5897C142.405 63.838 142.225 64.1313 142.018 64.4684C139.134 69.1632 131.042 82.3375 114.289 100.322C103.996 111.372 108.28 124.803 112.876 139.213C118.008 155.306 123.53 172.619 109.567 189.197C121.176 189.197 168.831 145.932 168.831 106.931ZM130.339 111.399C136.038 96.6418 153.369 89.5776 153.482 89.5318C167.609 131.634 128.772 137.778 128.772 137.778C128.772 137.778 124.621 126.204 130.339 111.399Z" fill="url(#paint2_linear_24_51)"/>
<defs>
<linearGradient id="paint0_linear_24_51" x1="218.935" y1="218.736" x2="0.198242" y2="0" gradientUnits="userSpaceOnUse">
<stop stop-color="#2B2D42"/>
<stop offset="1" stop-color="#3C3F60"/>
</linearGradient>
<linearGradient id="paint1_linear_24_51" x1="109.566" y1="29.5391" x2="109.566" y2="189.197" gradientUnits="userSpaceOnUse">
<stop stop-color="#E7C7FF"/>
<stop offset="1" stop-color="#5154F6"/>
</linearGradient>
<linearGradient id="paint2_linear_24_51" x1="109.566" y1="29.5391" x2="109.566" y2="189.197" gradientUnits="userSpaceOnUse">
<stop stop-color="#5154F6"/>
<stop offset="1" stop-color="#E7C7FF"/>
</linearGradient>
</defs>
</svg>
