<svg width="98" height="116" viewBox="0 0 98 116" fill="none" xmlns="http://www.w3.org/2000/svg">
<g style="mix-blend-mode:difference">
<path fill-rule="evenodd" clip-rule="evenodd" d="M66.7027 18.7595C70.9056 13.8884 73.7387 7.10387 72.9634 0.353516C66.9068 0.584104 59.5794 4.22248 55.2366 9.08783C51.3368 13.4055 47.9326 20.3046 48.8478 26.9224C55.6039 27.4239 62.4999 23.6363 66.7027 18.7595ZM81.853 61.6035C82.022 79.053 97.8251 84.8576 98 84.9325C97.8717 85.3418 95.4759 93.2034 89.6758 101.332C84.6568 108.353 79.4513 115.346 71.2495 115.496C63.1935 115.64 60.5995 110.919 51.3835 110.919C42.1733 110.919 39.2936 115.345 31.669 115.639C23.7529 115.922 17.7196 108.043 12.6656 101.044C2.32453 86.7309 -5.57409 60.5952 5.03514 42.9555C10.3048 34.199 19.719 28.6455 29.9435 28.5071C37.7139 28.363 45.0529 33.5175 49.8038 33.5175C54.5546 33.5175 63.4733 27.3204 72.8468 28.2313C76.7699 28.3869 87.7871 29.7469 94.858 39.6678C94.2867 40.0079 81.7131 47.019 81.853 61.6035Z" fill="black"/>
</g>
</svg>
