<svg width="44" height="44" viewBox="0 0 44 44" fill="none" xmlns="http://www.w3.org/2000/svg">
<g clip-path="url(#clip0_611_17089)">
<path d="M44 22C44 9.84923 34.1508 0 22 0C9.84923 0 0 9.84923 0 22C0 34.1508 9.84923 44 22 44C34.1508 44 44 34.1508 44 22Z" fill="#F8604A"/>
<path d="M29.7 35.2373H25.2628V12.32H23.0272C19.2128 12.32 17.3072 14.2273 17.3072 17.0873C17.3072 20.2773 18.59 21.8528 21.45 23.76L23.6872 25.3373L17.3428 35.2H12.2472L18.2972 26.29C14.8128 23.76 12.9072 21.5228 12.9072 17.3801C12.9072 12.2828 16.39 8.80005 23.1 8.80005H29.7V35.2373Z" fill="white"/>
</g>
<defs>
<clipPath id="clip0_611_17089">
<rect width="44" height="44" fill="white"/>
</clipPath>
</defs>
</svg>
